# xmcd
#
# Track frame offsets:
#  150
#  11982
#  24779
#  38158
#  47745
#  57068
#  70439
#  85028
#  95943
#  107892
#  121256
#  135630
#  148224
#  162090
#  174161
#  186566
#
# Disc length: 2663 seconds
#
# Revision: 0
# Processed by: cddbd v1.4PL0 Copyright (c) Steve Scherf et al.
# Submitted via: AltoMP3_Maker 3.0
#
DISCID=de0a6510
DTITLE=Howlin' Wolf - Howlin' Wolf - The Blues Collection
DYEAR=1900
DGENRE=
TTITLE0=baby ride with me
TTITLE1=how many more years
TTITLE2=california boogie
TTITLE3=look a here baby
TTITLE4=smile at me
TTITLE5=my baby walked off
TTITLE6=my troubles and me
TTITLE7=mr. highway man
TTITLE8=chocolate drop
TTITLE9=everybody's in the mood
TTITLE10=color and kind
TTITLE11=bluebird
TTITLE12=my last affair
TTITLE13=dorothy and me
TTITLE14=oh red
TTITLE15=california blue
EXTD=
EXTT0=
EXTT1=
EXTT2=
EXTT3=
EXTT4=
EXTT5=
EXTT6=
EXTT7=
EXTT8=
EXTT9=
EXTT10=
EXTT11=
EXTT12=
EXTT13=
EXTT14=
EXTT15=
PLAYORDER=
